<?xml version="1.0" encoding="iso-8859-1"?>
<!-- Generator: Adobe Illustrator 16.0.0, SVG Export Plug-In . SVG Version: 6.00 Build 0)  -->
<!DOCTYPE svg PUBLIC "-//W3C//DTD SVG 1.1//EN" "http://www.w3.org/Graphics/SVG/1.1/DTD/svg11.dtd">
<svg version="1.1" id="Capa_1" xmlns="http://www.w3.org/2000/svg" xmlns:xlink="http://www.w3.org/1999/xlink" x="0px" y="0px"
	 width="459.721px" height="459.721px" viewBox="0 0 459.721 459.721" style="enable-background:new 0 0 459.721 459.721;"
	 xml:space="preserve">
<g>
	<g>
		<path d="M279.49,145.818C395.245,189.429,449.493,43.042,454.398,28.99c-2.653,5.809-22.674,29.899-168.368-7.474
			C108.289-24.072,121.219,76.162,121.219,76.162v90.585v89.979c-27.176-9.445-63.201,0.437-90.207,27.435
			c-34.674,34.677-41.271,84.309-14.719,110.85c26.542,26.541,76.169,19.957,110.845-14.72
			c18.028-18.025,28.381-40.069,30.523-60.841h0.285v-3.334c0.194-3.258,0.218-6.479,0-9.638v-168.69
			C182.522,127.779,221.25,123.878,279.49,145.818z"/>
		<path d="M454.398,28.99c0.333-0.723,0.417-1.188,0.417-1.188S454.651,28.281,454.398,28.99z"/>
		<path d="M320.322,171.293c-76.871,0-139.4,62.53-139.4,139.4c0,76.866,62.538,139.398,139.4,139.398
			s139.398-62.532,139.398-139.398C459.721,233.824,397.185,171.293,320.322,171.293z M320.322,418.69
			c-59.559,0-108-48.441-108-107.996c0-59.551,48.442-107.998,108-107.998c59.554,0,107.996,48.447,107.996,107.998
			C428.318,370.249,379.876,418.69,320.322,418.69z"/>
		<path d="M288.92,243.578c-10.849,0-19.624,8.784-19.624,19.624v94.988c0,10.848,8.775,19.624,19.624,19.624
			c10.84,0,19.628-8.776,19.628-19.624v-94.988C308.548,252.362,299.76,243.578,288.92,243.578z"/>
		<path d="M351.724,243.578c-10.848,0-19.624,8.784-19.624,19.624v94.988c0,10.848,8.776,19.624,19.624,19.624
			c10.841,0,19.625-8.776,19.625-19.624v-94.988C371.349,252.362,362.564,243.578,351.724,243.578z"/>
	</g>
</g>
<g>
</g>
<g>
</g>
<g>
</g>
<g>
</g>
<g>
</g>
<g>
</g>
<g>
</g>
<g>
</g>
<g>
</g>
<g>
</g>
<g>
</g>
<g>
</g>
<g>
</g>
<g>
</g>
<g>
</g>
</svg>
